<svg xmlns="http://www.w3.org/2000/svg" width="152" height="46" fill="none" viewBox="0 0 152 46">
    <path stroke="#007AFF" stroke-linecap="round" stroke-linejoin="round" stroke-miterlimit="2.613" stroke-width="4.5" d="M31.734 3.6H52.38c5.932 0 10.785 4.368 10.785 9.706 0 5.339-4.853 9.707-10.785 9.707H31.734"/>
    <path stroke="#007AFF" stroke-linecap="round" stroke-linejoin="round" stroke-miterlimit="2.613" stroke-width="4.5" d="M31.734 42.357H52.38c5.932 0 10.785-4.368 10.785-9.707 0-5.338-4.853-9.706-10.785-9.706H3M18.561 13.307h33.665M18.561 33.344h33.665"/>
    <path fill="#007AFF" d="M84.016 19V7.625H88c1.38 0 2.427.266 3.14.797.714.526 1.07 1.3 1.07 2.32 0 .557-.142 1.05-.429 1.477-.286.422-.685.732-1.195.93.583.145 1.042.44 1.375.882.338.443.508.985.508 1.625 0 1.094-.35 1.922-1.047 2.485-.698.562-1.693.849-2.984.859h-4.422zm2.343-4.953v3.07h2.008c.552 0 .982-.13 1.29-.39.312-.266.468-.63.468-1.094 0-1.042-.54-1.57-1.617-1.586h-2.149zm0-1.656h1.735c1.182-.021 1.773-.493 1.773-1.414 0-.516-.15-.886-.453-1.11-.297-.229-.768-.344-1.414-.344h-1.64v2.868zm14.297 4.265h-4.11L95.767 19h-2.493l4.235-11.375h2.172L103.938 19h-2.493l-.789-2.344zm-3.476-1.898h2.843l-1.43-4.258-1.413 4.258zM114.25 19h-2.344l-4.562-7.484V19H105V7.625h2.344l4.57 7.5v-7.5h2.336V19zm10.375-9.477h-3.484V19h-2.344V9.523h-3.438V7.625h9.266v1.898zm9.953-1.898v7.492c0 1.245-.39 2.23-1.172 2.953-.776.724-1.838 1.086-3.187 1.086-1.328 0-2.383-.351-3.164-1.054-.782-.704-1.18-1.67-1.196-2.899V7.625h2.344v7.508c0 .745.177 1.289.531 1.633.36.338.855.507 1.485.507 1.317 0 1.987-.692 2.008-2.078v-7.57h2.351zM84.016 38V26.625H88c1.38 0 2.427.266 3.14.797.714.526 1.07 1.3 1.07 2.32 0 .557-.142 1.05-.429 1.477-.286.422-.685.732-1.195.93.583.145 1.042.44 1.375.882.338.443.508.985.508 1.625 0 1.094-.35 1.922-1.047 2.485-.698.562-1.693.849-2.984.859h-4.422zm2.343-4.953v3.07h2.008c.552 0 .982-.13 1.29-.39.312-.266.468-.63.468-1.094 0-1.042-.54-1.57-1.617-1.586h-2.149zm0-1.656h1.735c1.182-.021 1.773-.493 1.773-1.414 0-.516-.15-.886-.453-1.11-.297-.229-.768-.344-1.414-.344h-1.64v2.868zm14.719 1.68h-4.5v3.046h5.281V38h-7.625V26.625h7.61v1.898h-5.266v2.711h4.5v1.836zm4.5 3.046h4.977V38h-7.321V26.625h2.344v9.492zm12.906-.46h-4.109L113.594 38h-2.492l4.234-11.375h2.172L121.766 38h-2.493l-.789-2.344zm-3.476-1.9h2.844l-1.43-4.257-1.414 4.258zm12.406-7.132h2.344V34.5c0 .724-.162 1.365-.485 1.922-.317.552-.768.979-1.351 1.281-.583.302-1.242.453-1.977.453-1.203 0-2.14-.304-2.812-.914-.672-.614-1.008-1.482-1.008-2.601h2.359c0 .557.118.968.352 1.234.234.266.604.398 1.109.398.448 0 .805-.153 1.071-.46.265-.308.398-.745.398-1.313v-7.875zm10.602 9.031h-4.11L133.125 38h-2.492l4.234-11.375h2.172L141.297 38h-2.492l-.789-2.344zm-3.477-1.898h2.844l-1.43-4.258-1.414 4.258zm12.031.078h-1.867V38h-2.344V26.625h4.227c1.344 0 2.38.3 3.109.898.729.6 1.094 1.446 1.094 2.54 0 .776-.169 1.424-.508 1.945-.333.515-.841.927-1.523 1.234l2.461 4.649V38h-2.516l-2.133-4.164zm-1.867-1.898h1.891c.588 0 1.044-.149 1.367-.446.323-.302.484-.716.484-1.242 0-.537-.153-.958-.461-1.266-.302-.307-.768-.46-1.398-.46h-1.883v3.413z"/>
</svg>
